<?xml version="1.0" encoding="UTF-8" ?>
<svg height="261.97" version="1.1" width="632.89001" viewBox="0 0 632.89001 261.97" xmlns="http://www.w3.org/2000/svg">
    <line x2="230" x1="230" y2="128.02" style="stroke-width:2.24px;stroke:#3a6f79;" y1="170"/>
    <polygon points="224.43,129.65 235.57,129.65 230,120 " style="fill:#3a6f79;"/>
    <line x2="571.97998" x1="571.97998" y2="161.98" style="stroke-width:2.24px;stroke:#3a6f79;" y1="120"/>
    <polygon points="577.55,160.35 566.4,160.35 571.98,170 " style="fill:#3a6f79;"/>
    <line x2="161.98" x1="120" y2="60" style="stroke-width:2.24px;stroke:#3a6f79;" y1="60"/>
    <polygon points="160.35,54.43 160.35,65.57 170,60 " style="fill:#3a6f79;"/>
    <line x2="331.98001" x1="290" y2="60" style="stroke-width:2.24px;stroke:#3a6f79;" y1="60"/>
    <polygon points="330.35,54.43 330.35,65.57 340,60 " style="fill:#3a6f79;"/>
    <line x2="503.95001" x1="461.98001" y2="60" style="stroke-width:2.24px;stroke:#3a6f79;" y1="60"/>
    <polygon points="502.32,54.43 502.32,65.57 511.98,60 " style="fill:#3a6f79;"/>
    <circle cx="60" style="fill:#3a6f79;" r="60" cy="60"/>
    <circle cx="230" style="fill:#3a6f79;" r="60" cy="60"/>
    <circle cx="571.97998" style="fill:#3a6f79;" r="60" cy="60"/>
    <rect height="90" x="340.98999" style="fill:none;stroke:#3a6f79;stroke-miterlimit:10;" width="120" y="15"/>
    <rect height="90" x="169.92" style="fill:none;stroke:#3a6f79;stroke-miterlimit:10;" width="120" y="170.97"/>
    <rect height="90" x="511.89001" style="fill:none;stroke:#3a6f79;stroke-miterlimit:10;" width="120" y="170.97"/>
    <text x="103.34582" style="font-style:normal;font-weight:normal;font-size:12px;font-family:sans-serif;text-align:center;text-anchor:middle;fill:#ffffff" y="62.509998">
        <tspan x="60.879997" style="font-style:normal;font-weight:normal;font-size:12px;font-family:sans-serif;text-align:center;text-anchor:middle" y="62.509998">Crear Proyecto</tspan>
    </text>
    <text x="272.21307" style="font-style:normal;font-weight:normal;font-size:12px;font-family:sans-serif;text-align:center;text-anchor:middle;fill:#ffffff" y="62.880001">
        <tspan x="226.05" style="font-style:normal;font-weight:normal;font-size:12px;font-family:sans-serif;text-align:center;text-anchor:middle" y="62.880001">Generar XLIFF</tspan>
    </text>
    <text x="400.77362" style="font-style:normal;font-weight:normal;font-size:12px;font-family:sans-serif;text-align:center;text-anchor:middle;fill:#3a6f79" y="48.509998">
        <tspan x="400.77362" y="48.509998">Enviar </tspan><tspan x="400.77362" y="63.509998">XLIFF para</tspan><tspan x="400.77362" y="78.509995"> Traducción</tspan>
    </text>
    <text x="572.89478" style="font-style:normal;font-weight:normal;font-size:12px;font-family:sans-serif;text-align:center;text-anchor:middle;fill:#ffffff" y="56.549999">
        <tspan x="572.89478" y="56.549999">Importar</tspan><tspan x="572.89478" y="71.550003">XLIFF Traducido</tspan>
    </text>
    <text x="228.90759" style="font-style:normal;font-weight:normal;font-size:12px;font-family:sans-serif;text-align:center;text-anchor:middle;fill:#3a6f79" y="209.11719">
        <tspan x="228.90759" y="209">Actualizar</tspan><tspan x="228.90759" y="224">Contenido DITA</tspan>
    </text>
    <text x="572" style="font-style:normal;font-weight:normal;font-size:12px;font-family:sans-serif;text-align:center;text-anchor:middle;fill:#3a6f79;" y="209">
        <tspan x="572" y="209">Publicar</tspan><tspan x="572" y="224">DITA Traducido</tspan>
    </text>
</svg>